<svg xmlns="http://www.w3.org/2000/svg" xmlns:xlink="http://www.w3.org/1999/xlink" width="1587" zoomAndPan="magnify" viewBox="0 0 1190.25 1683.749945" height="2245" preserveAspectRatio="xMidYMid meet" version="1.0"><defs><g/><clipPath id="183f7b2bd2"><path d="M 631 601.394531 L 799 601.394531 L 799 769 L 631 769 Z M 631 601.394531 " clip-rule="nonzero"/></clipPath><clipPath id="fe5a3da300"><path d="M 536 688 L 909 688 L 909 1057.75 L 536 1057.75 Z M 536 688 " clip-rule="nonzero"/></clipPath></defs><g clip-path="url(#183f7b2bd2)"><path fill="#db9e45" d="M 784.886719 697.316406 L 737.113281 661.160156 C 729.835938 655.652344 720.808594 652.621094 711.6875 652.621094 L 689.632812 652.621094 C 689.125 649.054688 686.480469 645.460938 681.59375 641.699219 C 682.367188 640.488281 683.550781 638.433594 684.386719 636.03125 C 686.222656 630.746094 685.46875 626.382812 682.207031 623.414062 C 679.566406 621.011719 676.296875 618.246094 674.191406 617.203125 L 674.191406 602.777344 C 674.191406 602.011719 673.574219 601.394531 672.808594 601.394531 L 665.847656 601.394531 C 665.082031 601.394531 664.464844 602.011719 664.464844 602.777344 L 664.464844 617.203125 C 662.359375 618.246094 659.089844 621.011719 656.449219 623.414062 C 653.1875 626.382812 652.433594 630.746094 654.269531 636.03125 C 655.105469 638.433594 656.289062 640.488281 657.0625 641.699219 C 651.53125 645.957031 648.867188 650 648.925781 654.03125 C 649.007812 659.574219 654.300781 663.195312 657.460938 665.363281 C 657.828125 665.609375 658.160156 665.839844 658.457031 666.050781 C 660.980469 667.855469 658.695312 673.914062 657.3125 676.726562 L 654.378906 676.726562 C 653.96875 676.726562 653.582031 676.910156 653.316406 677.226562 L 642.078125 690.722656 C 642.070312 690.734375 642.0625 690.75 642.054688 690.761719 C 641.984375 690.851562 641.925781 690.945312 641.882812 691.042969 C 641.878906 691.050781 641.875 691.054688 641.871094 691.0625 C 641.824219 691.167969 641.796875 691.28125 641.78125 691.394531 C 641.777344 691.425781 641.773438 691.457031 641.769531 691.488281 C 641.765625 691.527344 641.757812 691.566406 641.757812 691.609375 L 641.757812 704.40625 C 635.875 704.960938 631.253906 709.929688 631.253906 715.960938 L 631.253906 767.003906 C 631.710938 766.96875 632.171875 766.921875 632.632812 766.898438 C 633.6875 766.84375 634.75 766.816406 635.8125 766.816406 L 640.21875 766.816406 C 640.21875 767.246094 640.414062 767.628906 640.722656 767.882812 C 640.941406 768.0625 641.210938 768.175781 641.507812 768.195312 C 641.539062 768.199219 641.5625 768.207031 641.59375 768.207031 L 641.601562 768.207031 C 641.628906 768.207031 641.660156 768.199219 641.6875 768.195312 C 641.988281 768.179688 642.257812 768.0625 642.476562 767.882812 C 642.78125 767.632812 642.980469 767.257812 642.980469 766.832031 L 642.980469 766.816406 L 649.824219 766.816406 C 650.027344 767.328125 650.523438 767.691406 651.105469 767.691406 L 651.121094 767.691406 C 651.699219 767.683594 652.191406 767.320312 652.390625 766.816406 L 696.066406 766.816406 C 696.269531 767.328125 696.765625 767.691406 697.351562 767.691406 C 697.933594 767.691406 698.429688 767.328125 698.632812 766.816406 L 702.84375 766.816406 C 703.90625 766.816406 704.96875 766.84375 706.023438 766.898438 C 706.484375 766.921875 706.941406 766.96875 707.402344 767.003906 L 707.402344 715.960938 C 707.402344 709.929688 702.78125 704.960938 696.898438 704.40625 L 696.898438 691.609375 C 696.898438 691.566406 696.886719 691.527344 696.886719 691.488281 C 696.882812 691.457031 696.878906 691.425781 696.875 691.394531 C 696.859375 691.28125 696.828125 691.167969 696.785156 691.0625 C 696.78125 691.054688 696.777344 691.050781 696.773438 691.042969 C 696.730469 690.945312 696.667969 690.851562 696.601562 690.761719 C 696.589844 690.75 696.585938 690.734375 696.578125 690.722656 L 685.339844 677.226562 C 685.074219 676.910156 684.6875 676.726562 684.277344 676.726562 L 681.34375 676.726562 C 679.960938 673.914062 677.675781 667.855469 680.199219 666.050781 C 680.492188 665.839844 680.828125 665.609375 681.195312 665.363281 C 683.898438 663.507812 688.15625 660.582031 689.382812 656.304688 L 711.6875 656.304688 C 720.011719 656.304688 728.253906 659.074219 734.890625 664.097656 L 782.65625 700.25 C 780 705.175781 781.640625 710.480469 782.707031 712.957031 C 783.015625 712.507812 783.335938 712.0625 783.664062 711.625 C 783.996094 711.1875 784.34375 710.765625 784.695312 710.34375 C 784.007812 708.152344 783.5 704.9375 784.902344 701.949219 C 785.164062 701.386719 785.488281 700.832031 785.898438 700.296875 C 786.28125 699.800781 786.707031 699.394531 787.152344 699.035156 C 788.882812 697.652344 791.023438 697.214844 793.003906 697.214844 C 794.210938 697.214844 795.339844 697.375 796.28125 697.5625 C 796.695312 697.167969 797.128906 696.800781 797.558594 696.429688 C 797.988281 696.058594 798.425781 695.707031 798.871094 695.359375 C 796.445312 694.605469 789.515625 692.988281 784.886719 697.316406 Z M 679.632812 663.082031 C 679.253906 663.339844 678.902344 663.582031 678.59375 663.800781 C 674.570312 666.675781 676.773438 673.296875 678.289062 676.726562 L 670.722656 676.726562 C 670.722656 676.722656 670.722656 676.714844 670.722656 676.707031 L 670.335938 672.335938 C 670.269531 671.578125 669.597656 671.015625 668.839844 671.082031 C 668.082031 671.148438 667.519531 671.820312 667.585938 672.578125 L 667.953125 676.726562 L 666.605469 676.726562 C 666.613281 676.648438 666.621094 676.566406 666.613281 676.484375 L 666.230469 670.316406 C 666.179688 669.554688 665.539062 668.976562 664.765625 669.023438 C 664.003906 669.070312 663.425781 669.726562 663.472656 670.488281 L 663.859375 676.65625 C 663.859375 676.683594 663.867188 676.703125 663.867188 676.726562 L 660.367188 676.726562 C 661.882812 673.296875 664.085938 666.675781 660.0625 663.800781 C 659.753906 663.582031 659.402344 663.339844 659.023438 663.082031 C 656.125 661.097656 651.746094 658.101562 651.6875 653.992188 C 651.644531 650.855469 654.140625 647.367188 659.101562 643.621094 C 660.519531 644.242188 663.667969 645.34375 668.195312 645.34375 C 668.714844 645.34375 669.253906 645.328125 669.808594 645.296875 C 670.570312 645.253906 671.152344 644.601562 671.109375 643.839844 C 671.066406 643.078125 670.410156 642.503906 669.652344 642.539062 C 668.839844 642.582031 668.070312 642.585938 667.34375 642.5625 C 667.417969 642.253906 667.390625 641.917969 667.234375 641.613281 C 665.679688 638.589844 667.035156 633.316406 667.6875 631.539062 C 667.953125 630.824219 667.585938 630.027344 666.871094 629.765625 C 666.15625 629.5 665.363281 629.863281 665.097656 630.582031 C 664.988281 630.875 662.566406 637.570312 664.523438 642.292969 C 664.253906 642.25 663.992188 642.203125 663.746094 642.152344 C 663.722656 642.0625 663.6875 641.96875 663.640625 641.878906 C 657.851562 630.402344 664.523438 626.796875 664.828125 626.640625 C 665.503906 626.300781 665.78125 625.476562 665.449219 624.792969 C 665.109375 624.109375 664.28125 623.828125 663.597656 624.164062 C 663.46875 624.226562 660.433594 625.761719 659.117188 629.699219 C 658.035156 632.933594 658.417969 636.761719 660.246094 641.101562 C 660.09375 641.039062 659.96875 640.980469 659.875 640.933594 C 658.765625 639.339844 652.929688 630.347656 658.308594 625.457031 C 663.949219 620.324219 665.804688 619.601562 666.042969 619.523438 C 666.710938 619.429688 667.226562 618.855469 667.226562 618.15625 L 667.226562 604.160156 L 671.429688 604.160156 L 671.429688 618.15625 C 671.429688 618.855469 671.945312 619.429688 672.613281 619.523438 C 672.851562 619.601562 674.707031 620.324219 680.347656 625.457031 C 685.632812 630.265625 680.089844 639.027344 678.84375 640.84375 C 678.792969 640.863281 678.738281 640.878906 678.683594 640.898438 C 680.933594 636.785156 679.355469 631.070312 679.28125 630.808594 C 679.070312 630.078125 678.308594 629.652344 677.578125 629.859375 C 676.84375 630.070312 676.417969 630.832031 676.625 631.566406 C 676.640625 631.625 678.191406 637.242188 675.839844 640.234375 C 675.46875 640.707031 675.460938 641.339844 675.757812 641.820312 C 675.015625 642.046875 674.492188 642.203125 674.476562 642.207031 C 673.746094 642.421875 673.328125 643.191406 673.546875 643.921875 C 673.722656 644.523438 674.273438 644.914062 674.871094 644.914062 C 675 644.914062 675.132812 644.894531 675.261719 644.855469 C 675.367188 644.824219 677.585938 644.167969 679.460938 643.550781 C 684.484375 647.324219 687.011719 650.835938 686.96875 653.992188 C 686.910156 658.101562 682.53125 661.097656 679.632812 663.082031 Z M 694.136719 692.988281 L 694.136719 703.722656 L 686.992188 703.722656 L 687.421875 698.542969 C 687.484375 697.78125 686.921875 697.113281 686.160156 697.050781 C 685.390625 696.980469 684.734375 697.554688 684.671875 698.3125 L 684.21875 703.722656 L 676.140625 703.722656 L 676.378906 697.972656 C 676.410156 697.207031 675.816406 696.5625 675.054688 696.53125 C 674.28125 696.492188 673.652344 697.09375 673.617188 697.855469 L 673.375 703.722656 L 666.847656 703.722656 L 666.617188 696.070312 C 666.59375 695.308594 665.960938 694.726562 665.195312 694.730469 C 664.433594 694.753906 663.832031 695.390625 663.855469 696.15625 L 664.085938 703.722656 L 657.882812 703.722656 L 657.882812 692.988281 Z M 655.121094 703.722656 L 652.230469 703.722656 L 652.230469 696.628906 C 652.230469 695.863281 651.613281 695.246094 650.847656 695.246094 C 650.085938 695.246094 649.46875 695.863281 649.46875 696.628906 L 649.46875 703.722656 L 644.519531 703.722656 L 644.519531 692.988281 L 655.121094 692.988281 Z M 669.347656 690.226562 L 672.113281 684.925781 C 672.464844 684.25 672.203125 683.414062 671.527344 683.058594 C 670.851562 682.707031 670.015625 682.96875 669.664062 683.644531 L 666.582031 689.558594 C 666.46875 689.773438 666.425781 690 666.429688 690.226562 L 646.089844 690.226562 L 655.023438 679.492188 L 658.421875 679.492188 L 653.089844 686.535156 C 652.628906 687.144531 652.746094 688.011719 653.355469 688.472656 C 653.605469 688.664062 653.898438 688.753906 654.1875 688.753906 C 654.605469 688.753906 655.019531 688.566406 655.289062 688.207031 L 661.710938 679.71875 C 661.765625 679.648438 661.8125 679.570312 661.851562 679.492188 L 664.648438 679.492188 L 662.214844 684.160156 C 661.859375 684.835938 662.121094 685.671875 662.800781 686.027344 C 663.003906 686.132812 663.222656 686.183594 663.4375 686.183594 C 663.933594 686.183594 664.414062 685.910156 664.660156 685.441406 L 667.746094 679.523438 C 667.75 679.515625 667.753906 679.503906 667.757812 679.492188 L 683.628906 679.492188 L 692.566406 690.226562 Z M 704.640625 766.5 L 698.710938 766.5 C 698.722656 766.4375 698.730469 766.375 698.730469 766.308594 L 698.730469 718.484375 C 698.730469 717.71875 698.113281 717.101562 697.351562 717.101562 C 696.585938 717.101562 695.96875 717.71875 695.96875 718.484375 L 695.96875 766.308594 C 695.96875 766.375 695.980469 766.4375 695.988281 766.5 L 652.46875 766.5 C 652.476562 766.433594 652.488281 766.363281 652.488281 766.292969 L 652.230469 743.921875 C 652.222656 743.160156 651.582031 742.542969 650.832031 742.558594 C 650.070312 742.566406 649.460938 743.191406 649.46875 743.953125 L 649.726562 766.324219 C 649.726562 766.386719 649.738281 766.441406 649.746094 766.5 L 642.984375 766.5 L 643.238281 720.804688 C 643.242188 720.042969 642.628906 719.421875 641.863281 719.414062 C 641.113281 719.453125 640.480469 720.027344 640.476562 720.789062 L 640.222656 766.5 L 634.015625 766.5 L 634.015625 715.960938 C 634.015625 711.082031 637.980469 707.113281 642.855469 707.113281 L 695.800781 707.113281 C 700.675781 707.113281 704.640625 711.082031 704.640625 715.960938 Z M 651.714844 729.324219 L 651.457031 738.324219 C 651.4375 739.070312 650.824219 739.664062 650.078125 739.664062 C 650.066406 739.664062 650.050781 739.664062 650.039062 739.664062 C 649.277344 739.640625 648.675781 739.007812 648.699219 738.242188 L 648.953125 729.242188 C 648.976562 728.480469 649.613281 727.882812 650.375 727.902344 C 651.136719 727.921875 651.738281 728.558594 651.714844 729.324219 Z M 660.449219 738.28125 L 660.449219 759.625 C 660.449219 760.386719 659.832031 761.007812 659.070312 761.007812 C 658.308594 761.007812 657.6875 760.386719 657.6875 759.625 L 657.6875 738.28125 C 657.6875 737.519531 658.308594 736.902344 659.070312 736.902344 C 659.832031 736.902344 660.449219 737.519531 660.449219 738.28125 Z M 671.242188 743.9375 L 671.242188 752.9375 C 671.242188 753.703125 670.625 754.320312 669.859375 754.320312 C 669.097656 754.320312 668.480469 753.703125 668.480469 752.9375 L 668.480469 743.9375 C 668.480469 743.175781 669.097656 742.558594 669.859375 742.558594 C 670.625 742.558594 671.242188 743.175781 671.242188 743.9375 Z M 689.738281 731.867188 L 689.480469 755.523438 C 689.472656 756.285156 688.855469 756.890625 688.101562 756.890625 L 688.085938 756.890625 C 687.324219 756.882812 686.710938 756.257812 686.71875 755.496094 L 686.976562 731.839844 C 686.988281 731.074219 687.652344 730.457031 688.375 730.472656 C 689.136719 730.480469 689.746094 731.105469 689.738281 731.867188 Z M 665.847656 665.515625 C 665.847656 666.277344 665.226562 666.898438 664.464844 666.898438 C 663.703125 666.898438 663.085938 666.277344 663.085938 665.515625 C 663.085938 662.851562 662.054688 662.101562 659.574219 660.289062 C 658.996094 659.871094 658.371094 659.414062 657.703125 658.886719 C 656.25 657.746094 656.023438 656.476562 656.09375 655.613281 C 656.3125 652.769531 659.976562 650.578125 660.707031 650.167969 C 661.375 649.792969 662.214844 650.03125 662.585938 650.699219 C 662.960938 651.363281 662.722656 652.203125 662.058594 652.578125 C 660.808594 653.285156 658.921875 654.804688 658.84375 655.828125 C 658.835938 655.941406 658.8125 656.246094 659.410156 656.714844 C 660.050781 657.21875 660.648438 657.65625 661.199219 658.058594 C 663.796875 659.953125 665.847656 661.449219 665.847656 665.515625 Z M 669.183594 655.15625 L 669.953125 669.296875 C 669.996094 670.058594 669.414062 670.710938 668.652344 670.753906 C 668.625 670.753906 668.601562 670.753906 668.574219 670.753906 C 667.847656 670.753906 667.238281 670.183594 667.199219 669.449219 L 666.425781 655.304688 C 666.382812 654.542969 666.96875 653.890625 667.730469 653.851562 C 668.476562 653.789062 669.140625 654.394531 669.183594 655.15625 Z M 678.433594 651.683594 C 678.421875 651.972656 678.128906 658.769531 675.167969 663.894531 C 674.910156 664.335938 674.445312 664.585938 673.96875 664.585938 C 673.734375 664.585938 673.496094 664.523438 673.28125 664.398438 C 672.617188 664.015625 672.394531 663.167969 672.777344 662.507812 C 675.390625 657.988281 675.671875 651.640625 675.675781 651.578125 C 675.703125 650.8125 676.351562 650.230469 677.109375 650.25 C 677.871094 650.28125 678.464844 650.921875 678.433594 651.683594 Z M 672.652344 638.296875 C 672.703125 639.058594 672.125 639.714844 671.367188 639.769531 C 671.335938 639.769531 671.304688 639.769531 671.273438 639.769531 C 670.550781 639.769531 669.945312 639.210938 669.894531 638.480469 L 669.511719 632.695312 C 669.460938 631.933594 670.035156 631.273438 670.796875 631.222656 C 671.546875 631.164062 672.214844 631.75 672.265625 632.511719 Z M 672.652344 638.296875 " fill-opacity="1" fill-rule="nonzero"/></g><g clip-path="url(#fe5a3da300)"><path fill="#000000" d="M 767.996094 825.292969 C 763.941406 809.691406 756.914062 796.417969 747.113281 785.832031 C 736.925781 774.835938 722.648438 768.128906 707.402344 767.003906 C 706.941406 766.96875 706.484375 766.921875 706.023438 766.898438 C 704.96875 766.84375 703.90625 766.816406 702.84375 766.816406 L 698.632812 766.816406 C 698.429688 767.328125 697.933594 767.691406 697.351562 767.691406 C 696.765625 767.691406 696.269531 767.328125 696.066406 766.816406 L 652.390625 766.816406 C 652.191406 767.320312 651.699219 767.683594 651.121094 767.691406 L 651.105469 767.691406 C 650.523438 767.691406 650.027344 767.328125 649.824219 766.816406 L 642.980469 766.816406 L 642.980469 766.832031 C 642.980469 767.257812 642.78125 767.632812 642.476562 767.882812 C 642.257812 768.0625 641.988281 768.179688 641.6875 768.195312 C 641.660156 768.199219 641.628906 768.207031 641.601562 768.207031 L 641.59375 768.207031 C 641.5625 768.207031 641.539062 768.199219 641.507812 768.195312 C 641.210938 768.175781 640.941406 768.0625 640.722656 767.882812 C 640.414062 767.628906 640.21875 767.246094 640.21875 766.816406 L 635.8125 766.816406 C 634.75 766.816406 633.6875 766.84375 632.632812 766.898438 C 632.171875 766.921875 631.710938 766.96875 631.253906 767.003906 C 616.007812 768.128906 601.730469 774.835938 591.542969 785.832031 C 581.742188 796.414062 574.714844 809.691406 570.660156 825.292969 C 568.957031 831.855469 566.753906 839.726562 564.207031 848.839844 C 548.617188 904.5625 522.523438 997.828125 546.511719 1024.316406 C 573.851562 1054.511719 612.90625 1057.699219 613.296875 1057.726562 C 613.332031 1057.730469 613.363281 1057.730469 613.398438 1057.730469 L 725.257812 1057.730469 C 725.292969 1057.730469 725.324219 1057.730469 725.359375 1057.726562 C 725.75 1057.699219 764.804688 1054.511719 792.144531 1024.316406 C 816.132812 997.828125 790.039062 904.5625 774.449219 848.839844 C 771.902344 839.726562 769.699219 831.855469 767.996094 825.292969 Z M 782.683594 1029.761719 C 784.921875 1011.546875 768.203125 910.746094 766.195312 898.757812 C 766.066406 898.003906 765.359375 897.5 764.605469 897.625 C 763.851562 897.75 763.34375 898.460938 763.46875 899.214844 C 771.703125 948.382812 782.816406 1023.980469 779.679688 1030.738281 C 779.457031 1031.222656 779.539062 1031.765625 779.84375 1032.164062 C 774.730469 1036.3125 769.449219 1039.710938 764.273438 1042.5 C 764.722656 1040.550781 765.011719 1033.707031 761.109375 1000.988281 C 758.863281 982.164062 756.292969 963.773438 756.265625 963.589844 C 756.160156 962.835938 755.457031 962.304688 754.707031 962.414062 C 753.953125 962.519531 753.425781 963.21875 753.53125 963.972656 C 757.484375 992.191406 763.144531 1038.347656 761.511719 1042.082031 C 761.253906 1042.675781 761.445312 1043.347656 761.933594 1043.722656 C 749.808594 1049.878906 738.515625 1052.734375 731.726562 1054.007812 C 731.753906 1053.964844 731.789062 1053.929688 731.8125 1053.882812 C 733.621094 1050.265625 733.671875 1032.941406 733.671875 1030.980469 C 733.671875 1030.214844 733.054688 1029.597656 732.289062 1029.597656 C 731.527344 1029.597656 730.910156 1030.214844 730.910156 1030.980469 C 730.910156 1038.144531 730.484375 1050.359375 729.34375 1052.644531 C 729.042969 1053.246094 729.222656 1053.960938 729.738281 1054.359375 C 727.125 1054.789062 725.496094 1054.941406 725.203125 1054.964844 L 632.289062 1054.964844 C 632.285156 1054.695312 632.199219 1054.421875 632.027344 1054.1875 C 629.554688 1049.832031 633.386719 985.132812 636.382812 945.375 C 636.441406 944.613281 635.871094 943.949219 635.109375 943.890625 C 634.339844 943.835938 633.6875 944.40625 633.628906 945.164062 C 633.609375 945.425781 631.640625 971.628906 630.160156 998.117188 C 627.613281 1043.585938 628.523438 1052.605469 629.347656 1054.964844 L 613.453125 1054.964844 C 613.167969 1054.941406 611.648438 1054.800781 609.195312 1054.402344 C 609.140625 1054.285156 609.074219 1054.171875 608.984375 1054.070312 C 601.734375 1045.738281 609.484375 974.574219 613.082031 947.855469 C 613.183594 947.097656 612.652344 946.402344 611.898438 946.300781 C 611.144531 946.195312 610.445312 946.726562 610.34375 947.484375 C 609.070312 956.957031 598.617188 1036.699219 605.671875 1053.761719 C 601.082031 1052.839844 594.800781 1051.257812 587.738281 1048.582031 C 587.761719 1048.324219 587.710938 1048.054688 587.578125 1047.808594 C 583.9375 1041.058594 584.152344 1021.882812 588.199219 992.355469 C 591.285156 969.863281 595.550781 949.183594 595.59375 948.980469 C 595.75 948.230469 595.269531 947.5 594.523438 947.34375 C 593.777344 947.1875 593.046875 947.671875 592.890625 948.417969 C 592.210938 951.699219 576.824219 1026.601562 584.3125 1047.222656 C 575.902344 1043.722656 566.648438 1038.679688 557.9375 1031.4375 C 557.957031 1031.179688 557.910156 1030.910156 557.773438 1030.664062 C 550.949219 1018.097656 574.351562 901.125 583.945312 857.113281 C 584.109375 856.367188 583.636719 855.628906 582.890625 855.46875 C 582.140625 855.304688 581.410156 855.777344 581.246094 856.523438 C 579.90625 862.675781 550.117188 999.917969 554.296875 1028.25 C 552.339844 1026.441406 550.421875 1024.519531 548.558594 1022.464844 C 525.59375 997.101562 551.429688 904.757812 566.863281 849.585938 C 569.417969 840.457031 571.625 832.574219 573.335938 825.988281 C 577.273438 810.832031 584.078125 797.957031 593.570312 787.710938 C 604.246094 776.1875 619.644531 769.578125 635.8125 769.578125 L 702.441406 769.578125 C 705.25 771.394531 725.894531 785.394531 729.90625 807.015625 C 730.027344 807.683594 730.609375 808.148438 731.261719 808.148438 C 731.34375 808.148438 731.429688 808.140625 731.515625 808.121094 C 732.265625 807.984375 732.757812 807.261719 732.621094 806.511719 C 729.183594 787.992188 714.722656 775.136719 707.570312 769.785156 C 721.984375 770.941406 735.457031 777.320312 745.085938 787.710938 C 754.578125 797.957031 761.386719 810.835938 765.320312 825.988281 C 767.03125 832.574219 769.238281 840.457031 771.792969 849.585938 C 787.226562 904.757812 813.058594 997.101562 790.097656 1022.464844 C 787.707031 1025.101562 785.222656 1027.527344 782.683594 1029.761719 Z M 830.613281 690.535156 L 830.054688 690.335938 C 819.34375 686.519531 807.664062 688.539062 798.871094 695.359375 C 798.425781 695.707031 797.988281 696.058594 797.558594 696.429688 C 797.128906 696.800781 796.695312 697.167969 796.28125 697.5625 C 795.671875 698.144531 795.082031 698.75 794.511719 699.382812 L 791.714844 702.488281 L 789.238281 705.234375 L 785.535156 709.339844 C 785.242188 709.667969 784.972656 710.007812 784.695312 710.34375 C 784.34375 710.765625 783.996094 711.1875 783.664062 711.625 C 783.335938 712.0625 783.015625 712.507812 782.707031 712.957031 C 776.164062 722.585938 775.09375 734.964844 780.175781 745.652344 L 780.433594 746.183594 C 791.320312 768.597656 818.644531 816.472656 853.304688 816.472656 C 857.3125 816.472656 861.417969 815.832031 865.605469 814.441406 C 872.363281 812.191406 878.640625 808.007812 883.753906 802.335938 L 896.992188 787.652344 C 902.105469 781.980469 905.625 775.304688 907.167969 768.34375 C 916.390625 726.726562 856.703125 700.066406 830.613281 690.535156 Z M 880.34375 733.105469 C 880.550781 733.308594 901.410156 753.53125 904.105469 764.832031 C 904.207031 765.25 904.496094 765.5625 904.855469 765.738281 C 904.742188 766.40625 904.617188 767.074219 904.46875 767.746094 C 903.730469 771.085938 902.492188 774.359375 900.816406 777.472656 C 896.839844 765.96875 869.320312 740.199219 868.113281 739.070312 C 867.554688 738.550781 866.679688 738.582031 866.160156 739.140625 C 865.640625 739.699219 865.671875 740.574219 866.230469 741.09375 C 876.605469 750.773438 896.695312 771.199219 898.449219 779.207031 C 898.546875 779.644531 898.851562 779.980469 899.230469 780.152344 C 897.972656 782.121094 896.550781 784.015625 894.941406 785.800781 L 894.382812 786.421875 L 881.007812 772.550781 C 880.480469 772 879.609375 771.984375 879.054688 772.515625 C 878.507812 773.042969 878.492188 773.917969 879.023438 774.46875 L 892.527344 788.476562 L 886.324219 795.359375 L 864.75 776.078125 C 864.179688 775.570312 863.308594 775.617188 862.800781 776.1875 C 862.292969 776.757812 862.339844 777.632812 862.910156 778.140625 L 884.476562 797.410156 L 881.703125 800.484375 C 880.933594 801.339844 880.125 802.144531 879.296875 802.925781 C 863.546875 800.53125 837.914062 770.101562 837.65625 769.792969 C 837.167969 769.207031 836.292969 769.128906 835.710938 769.621094 C 835.125 770.109375 835.050781 770.984375 835.539062 771.566406 C 836.578125 772.808594 859.976562 800.578125 876.710938 805.1875 C 874.828125 806.699219 872.847656 808.027344 870.78125 809.152344 C 841.640625 809.679688 811.320312 765.972656 811.019531 765.527344 C 810.585938 764.898438 809.726562 764.738281 809.097656 765.171875 C 808.46875 765.601562 808.308594 766.460938 808.738281 767.089844 C 808.816406 767.203125 816.660156 778.582031 828.121094 789.703125 C 841.421875 802.609375 853.925781 809.941406 865.382812 811.574219 C 865.164062 811.652344 864.953125 811.746094 864.734375 811.816406 C 847.402344 817.578125 829.503906 810.128906 811.53125 789.675781 C 801.433594 778.179688 791.539062 762.726562 782.917969 744.976562 L 782.671875 744.460938 C 778.113281 734.878906 778.957031 723.800781 784.625 715.0625 C 785.5 713.710938 786.480469 712.414062 787.582031 711.191406 L 791.511719 706.835938 L 793.777344 704.320312 L 796.5625 701.234375 C 797.523438 700.167969 798.550781 699.191406 799.628906 698.285156 C 799.699219 698.277344 799.792969 698.269531 799.910156 698.257812 C 803.261719 697.929688 824.527344 696.683594 853.617188 714.015625 C 853.839844 714.148438 854.082031 714.210938 854.324219 714.210938 C 854.792969 714.210938 855.253906 713.96875 855.511719 713.535156 C 855.902344 712.878906 855.6875 712.03125 855.03125 711.640625 C 830.917969 697.277344 812.230469 695.316406 803.839844 695.3125 C 808.457031 692.609375 813.695312 691.1875 819.019531 691.1875 C 822.398438 691.1875 825.816406 691.757812 829.128906 692.9375 L 829.664062 693.132812 C 848.1875 699.898438 864.5625 708.167969 877.019531 717.046875 C 896.035156 730.601562 905.527344 745.082031 905.347656 760.1875 C 899.796875 748.125 883.050781 731.878906 882.257812 731.117188 C 881.710938 730.589844 880.835938 730.601562 880.304688 731.152344 C 879.777344 731.703125 879.792969 732.578125 880.34375 733.105469 Z M 635.851562 773.425781 C 635.597656 773.523438 610.597656 783.898438 596.601562 835.921875 C 596.4375 836.539062 595.878906 836.945312 595.269531 836.945312 C 595.152344 836.945312 595.03125 836.929688 594.910156 836.898438 C 594.175781 836.699219 593.738281 835.941406 593.9375 835.203125 C 608.339844 781.660156 633.773438 771.265625 634.851562 770.847656 C 635.5625 770.570312 636.359375 770.925781 636.636719 771.640625 C 636.910156 772.351562 636.558594 773.148438 635.851562 773.425781 Z M 649.328125 771.832031 C 649.875 772.363281 649.886719 773.238281 649.355469 773.789062 C 649.230469 773.914062 636.929688 786.761719 633.625 805.292969 C 633.503906 805.960938 632.921875 806.433594 632.265625 806.433594 C 632.1875 806.433594 632.105469 806.425781 632.023438 806.410156 C 631.273438 806.277344 630.773438 805.558594 630.90625 804.808594 C 634.367188 785.414062 646.847656 772.402344 647.375 771.859375 C 647.90625 771.3125 648.78125 771.300781 649.328125 771.832031 Z M 630.539062 820.042969 L 627.113281 838.558594 C 626.992188 839.222656 626.410156 839.6875 625.757812 839.6875 C 625.675781 839.6875 625.589844 839.679688 625.503906 839.664062 C 624.753906 839.523438 624.261719 838.804688 624.398438 838.054688 L 627.824219 819.539062 C 627.964844 818.789062 628.679688 818.292969 629.433594 818.433594 C 630.183594 818.570312 630.679688 819.292969 630.539062 820.042969 Z M 661.730469 774.996094 L 660.359375 791.453125 C 660.300781 792.171875 659.695312 792.71875 658.984375 792.71875 C 658.949219 792.71875 658.910156 792.71875 658.871094 792.714844 C 658.109375 792.648438 657.546875 791.984375 657.609375 791.222656 L 658.980469 774.765625 C 659.042969 774.003906 659.703125 773.433594 660.46875 773.503906 C 661.230469 773.566406 661.792969 774.234375 661.730469 774.996094 Z M 673.371094 785.175781 C 673.355469 785.175781 673.335938 785.175781 673.320312 785.175781 C 672.554688 785.144531 671.960938 784.503906 671.992188 783.742188 L 672.335938 774.828125 C 672.363281 774.066406 673.023438 773.492188 673.765625 773.5 C 674.53125 773.527344 675.125 774.171875 675.09375 774.933594 L 674.75 783.847656 C 674.722656 784.589844 674.109375 785.175781 673.371094 785.175781 Z M 710.023438 807.117188 C 709.382812 807.117188 708.808594 806.667969 708.671875 806.015625 C 704.695312 786.769531 693.417969 775.640625 693.304688 775.527344 C 692.757812 774.996094 692.746094 774.121094 693.277344 773.574219 C 693.808594 773.027344 694.683594 773.015625 695.230469 773.546875 C 695.71875 774.019531 707.226562 785.386719 711.375 805.457031 C 711.53125 806.203125 711.050781 806.933594 710.304688 807.089844 C 710.210938 807.109375 710.117188 807.117188 710.023438 807.117188 Z M 718.921875 850.761719 C 719.046875 851.515625 718.539062 852.226562 717.789062 852.351562 C 717.710938 852.367188 717.632812 852.371094 717.558594 852.371094 C 716.894531 852.371094 716.3125 851.894531 716.199219 851.21875 C 714.164062 838.996094 711.425781 818.464844 711.398438 818.261719 C 711.296875 817.503906 711.828125 816.808594 712.582031 816.707031 C 713.34375 816.609375 714.035156 817.136719 714.132812 817.894531 C 714.160156 818.101562 716.894531 838.585938 718.921875 850.761719 Z M 746.667969 889.492188 C 746.800781 890.242188 746.296875 890.960938 745.542969 891.089844 C 745.464844 891.105469 745.386719 891.113281 745.304688 891.113281 C 744.648438 891.113281 744.0625 890.640625 743.949219 889.96875 L 731.617188 819.34375 C 731.484375 818.59375 731.988281 817.875 732.738281 817.746094 C 733.488281 817.617188 734.203125 818.117188 734.335938 818.867188 Z M 759.347656 843.582031 C 759.460938 844.335938 758.941406 845.042969 758.191406 845.15625 C 758.117188 845.167969 758.050781 845.171875 757.980469 845.171875 C 757.308594 845.171875 756.722656 844.683594 756.617188 843.996094 C 750.929688 806.5 732.140625 785.273438 731.949219 785.0625 C 731.441406 784.496094 731.484375 783.621094 732.050781 783.109375 C 732.617188 782.601562 733.488281 782.644531 734 783.210938 C 734.195312 783.425781 753.527344 805.21875 759.347656 843.582031 Z M 604.515625 878.601562 L 596.980469 934.484375 C 596.886719 935.175781 596.292969 935.679688 595.613281 935.679688 C 595.550781 935.679688 595.492188 935.675781 595.425781 935.667969 C 594.671875 935.566406 594.140625 934.871094 594.242188 934.113281 L 601.78125 878.234375 C 601.882812 877.476562 602.574219 876.9375 603.332031 877.046875 C 604.089844 877.148438 604.617188 877.847656 604.515625 878.601562 Z M 621.308594 902.527344 L 619.597656 923.441406 C 619.539062 924.164062 618.933594 924.710938 618.222656 924.710938 C 618.183594 924.710938 618.148438 924.710938 618.109375 924.707031 C 617.347656 924.644531 616.78125 923.976562 616.84375 923.214844 L 618.558594 902.304688 C 618.621094 901.542969 619.269531 900.976562 620.046875 901.039062 C 620.804688 901.101562 621.371094 901.765625 621.308594 902.527344 Z M 750.109375 913.605469 L 753.191406 947.886719 C 753.257812 948.648438 752.699219 949.320312 751.941406 949.390625 C 751.898438 949.394531 751.855469 949.394531 751.8125 949.394531 C 751.105469 949.394531 750.503906 948.855469 750.441406 948.136719 L 747.355469 913.851562 C 747.289062 913.09375 747.847656 912.421875 748.609375 912.351562 C 749.367188 912.28125 750.039062 912.84375 750.109375 913.605469 Z M 656.9375 967.941406 L 655.226562 1022.109375 C 655.203125 1022.855469 654.589844 1023.449219 653.847656 1023.449219 C 653.832031 1023.449219 653.816406 1023.449219 653.800781 1023.445312 C 653.039062 1023.421875 652.441406 1022.785156 652.464844 1022.019531 L 654.179688 967.855469 C 654.203125 967.089844 654.839844 966.46875 655.601562 966.515625 C 656.363281 966.539062 656.964844 967.179688 656.9375 967.941406 Z M 678.175781 985.820312 L 676.460938 1010.164062 C 676.410156 1010.890625 675.804688 1011.449219 675.085938 1011.449219 C 675.054688 1011.449219 675.019531 1011.445312 674.988281 1011.445312 C 674.226562 1011.390625 673.652344 1010.730469 673.707031 1009.96875 L 675.417969 985.628906 C 675.472656 984.867188 676.125 984.28125 676.894531 984.347656 C 677.65625 984.398438 678.226562 985.0625 678.175781 985.820312 Z M 726.8125 946.132812 C 727.089844 948.460938 733.671875 1003.238281 734.011719 1014.824219 C 734.035156 1015.589844 733.4375 1016.226562 732.671875 1016.246094 C 732.660156 1016.25 732.644531 1016.25 732.632812 1016.25 C 731.886719 1016.25 731.273438 1015.65625 731.253906 1014.90625 C 730.914062 1003.445312 724.136719 947.03125 724.070312 946.464844 C 723.976562 945.707031 724.515625 945.015625 725.273438 944.925781 C 726.039062 944.839844 726.71875 945.375 726.8125 946.132812 Z M 712.429688 978.761719 C 712.570312 980.617188 715.855469 1024.21875 715.167969 1030.78125 C 715.089844 1031.492188 714.492188 1032.019531 713.792969 1032.019531 C 713.746094 1032.019531 713.699219 1032.015625 713.648438 1032.011719 C 712.890625 1031.929688 712.339844 1031.25 712.417969 1030.492188 C 713.082031 1024.175781 709.710938 979.421875 709.675781 978.972656 C 709.617188 978.210938 710.1875 977.546875 710.949219 977.488281 C 711.710938 977.4375 712.371094 978.003906 712.429688 978.761719 Z M 801.445312 754.125 C 801.925781 754.71875 801.835938 755.589844 801.242188 756.070312 C 800.984375 756.277344 800.679688 756.378906 800.375 756.378906 C 799.96875 756.378906 799.570312 756.203125 799.300781 755.863281 C 780.589844 732.71875 783.976562 717.269531 784.128906 716.621094 C 784.304688 715.878906 785.039062 715.414062 785.789062 715.597656 C 786.53125 715.773438 786.988281 716.515625 786.816406 717.253906 C 786.777344 717.433594 783.699219 732.171875 801.445312 754.125 Z M 874.183594 727.285156 C 873.914062 727.644531 873.496094 727.835938 873.078125 727.835938 C 872.789062 727.835938 872.5 727.746094 872.25 727.558594 L 860.945312 719.074219 C 860.335938 718.617188 860.214844 717.75 860.671875 717.140625 C 861.128906 716.53125 861.992188 716.40625 862.605469 716.863281 L 873.90625 725.347656 C 874.515625 725.808594 874.640625 726.671875 874.183594 727.285156 Z M 829.46875 763.808594 C 829.199219 764.164062 828.789062 764.347656 828.375 764.347656 C 828.082031 764.347656 827.785156 764.253906 827.535156 764.0625 C 820.75 758.839844 803.054688 732.207031 802.304688 731.074219 C 801.882812 730.441406 802.058594 729.582031 802.691406 729.160156 C 803.328125 728.738281 804.183594 728.910156 804.605469 729.546875 C 804.789062 729.820312 822.796875 756.925781 829.21875 761.871094 C 829.824219 762.335938 829.9375 763.203125 829.46875 763.808594 Z M 856.167969 767.753906 C 856.648438 768.347656 856.558594 769.214844 855.964844 769.695312 C 855.710938 769.90625 855.402344 770.003906 855.097656 770.003906 C 854.695312 770.003906 854.296875 769.832031 854.023438 769.496094 L 842.976562 755.867188 C 842.496094 755.273438 842.585938 754.402344 843.179688 753.921875 C 843.769531 753.441406 844.640625 753.53125 845.121094 754.125 Z M 864.320312 754.046875 L 873.3125 763.558594 C 873.835938 764.113281 873.8125 764.988281 873.257812 765.515625 C 872.992188 765.765625 872.648438 765.890625 872.308594 765.890625 C 871.941406 765.890625 871.578125 765.746094 871.304688 765.460938 L 862.3125 755.945312 C 861.789062 755.390625 861.8125 754.515625 862.367188 753.992188 C 862.921875 753.46875 863.792969 753.492188 864.320312 754.046875 Z M 796.425781 705.433594 C 796.390625 704.671875 796.976562 704.027344 797.738281 703.988281 C 798.429688 703.957031 814.71875 703.277344 826.742188 710.082031 C 827.40625 710.457031 827.640625 711.300781 827.265625 711.964844 C 827.011719 712.414062 826.542969 712.664062 826.0625 712.667969 C 825.832031 712.667969 825.597656 712.609375 825.382812 712.488281 C 814.0625 706.082031 798.035156 706.746094 797.867188 706.75 C 797.109375 706.78125 796.460938 706.195312 796.425781 705.433594 Z M 845.890625 724.546875 L 837.15625 719.144531 C 836.507812 718.742188 836.304688 717.890625 836.707031 717.242188 C 837.109375 716.59375 837.960938 716.394531 838.605469 716.792969 L 847.34375 722.191406 C 847.992188 722.59375 848.191406 723.445312 847.792969 724.09375 C 847.53125 724.519531 847.078125 724.75 846.617188 724.75 C 846.367188 724.75 846.117188 724.683594 845.890625 724.546875 Z M 845.890625 724.546875 " fill-opacity="1" fill-rule="nonzero"/></g><path stroke-linecap="butt" transform="matrix(0.834291, 0, 0, 0.834291, 273.140564, 659.240603)" fill="none" stroke-linejoin="miter" d="M 79.802153 -17.673109 C 117.722656 -17.813573 82.985996 128.619779 57.370109 133.016291 C 23.359178 138.808076 9.607787 86.649241 54.41569 77.991999 C 56.789526 80.248781 59.397468 76.109786 54.87922 75.852269 C 6.166428 84.392459 20.755918 140.484275 57.370109 135.50718 C 75.635065 133.016291 90.571033 110.008346 102.323158 46.471956 C 110.367043 3.054643 126.749786 -20.159316 152.108157 -18.164732 C 170.949014 -15.444419 173.702101 4.23922 120.471061 48.354169 C 118.097226 49.772852 119.745332 52.493165 121.510492 51.449051 C 160.994823 25.950217 174.395055 59.844095 168.720324 88.180295 C 115.72339 86.649241 103.390682 123.179154 123.191374 133.596874 C 139.546024 139.880281 165.971919 129.687303 174.629161 89.744124 C 186.727763 89.486607 205.830819 86.649241 218.856482 66.127503 C 218.856482 65.54692 217.320746 65.54692 216.857216 66.01045 C 202.618884 86.649241 183.164669 87.833818 174.886678 87.950871 C 180.444356 52.984787 163.48103 25.224489 124.26358 47.62844 C 175.813738 17.292975 176.188308 -17.556056 153.180362 -20.042263 C 124.493004 -23.141827 108.94836 3.663319 102.089052 38.51235 C 105.764517 11.243674 101.016846 -20.159316 80.265683 -19.466362 C 57.861732 -18.740633 38.295146 6.149525 38.412199 34.719831 C 9.116164 22.157699 -7.931441 46.209757 4.256122 66.127503 L 7.351004 66.127503 C -5.702751 49.655799 7.351004 24.039912 38.178093 36.367938 C 38.641623 63.402508 48.975065 74.780063 57.978785 73.595486 C 66.514292 72.43432 72.914753 51.795528 40.786034 35.300414 C 39.943252 9.942044 57.861732 -16.975473 79.802153 -17.673109 Z M 168.228701 89.97823 C 163.022182 115.331918 144.757226 139.0375 124.146527 131.831714 C 107.300253 124.101532 115.840443 88.671918 168.228701 89.97823 Z M 58.699831 71.942698 C 51.929484 73.478433 42.087664 67.574278 40.434875 37.323091 C 69.005181 52.610218 64.145139 70.641068 58.699831 71.942698 Z M 231.053408 96.954591 C 223.931901 98.977267 219.067177 86.878665 223.093802 66.502072 C 253.92089 57.353207 240.169499 35.066308 225.350584 48.700646 C 209.834033 62.94366 212.207869 100.166526 231.282832 98.63079 C 241.962752 95.418855 255.480037 74.66301 261.992868 66.127503 C 261.992868 65.54692 260.461814 65.54692 259.970191 66.01045 C 254.876043 72.551373 240.895228 94.229596 231.053408 96.954591 Z M 223.702477 64.474714 C 225.725154 57.615406 230.098256 45.633857 236.868603 46.209757 C 241.471129 47.052539 243.962017 58.195989 223.702477 64.474714 Z M 275.973683 109.165564 C 286.653602 101.23405 301.706623 74.66301 308.214772 66.127503 C 308.214772 65.54692 306.683718 65.54692 306.220188 66.01045 C 301.12604 72.551373 284.04566 101.814633 273.857364 108.589663 C 261.037715 116.750601 263.87508 92.464436 264.596127 85.80646 C 265.55128 76.109786 267.433493 65.893397 268.61807 61.033354 C 307.404765 17.527081 302.774146 -5.485547 290.792597 -5.485547 C 276.203107 -5.485547 265.434227 23.576382 260.686556 53.331264 C 258.77625 65.317496 257.966243 77.528469 258.200349 87.833818 C 258.317402 93.653695 258.317402 112.611605 267.808063 112.611605 C 270.036752 112.611605 272.78984 111.5394 275.973683 109.165564 Z M 268.997321 57.961883 C 271.947058 30.927313 281.676507 -2.385982 290.212014 -3.692294 C 300.28794 -4.530394 304.539306 15.499722 268.997321 57.961883 Z M 322.087898 109.165564 C 332.767817 101.23405 347.820838 74.66301 354.333669 66.127503 C 354.333669 65.54692 352.797933 65.54692 352.334403 66.01045 C 347.240255 72.551373 330.164558 101.814633 319.971579 108.589663 C 307.15193 116.750601 309.989296 92.464436 310.710342 85.80646 C 311.665495 76.109786 313.547708 65.893397 314.732285 61.033354 C 353.51898 17.527081 348.888362 -5.485547 336.906813 -5.485547 C 322.317322 -5.485547 311.548442 23.576382 306.805453 53.331264 C 304.895147 65.317496 304.080458 77.528469 304.314564 87.833818 C 304.431617 93.653695 304.431617 112.611605 313.922278 112.611605 C 316.150968 112.611605 318.904055 111.5394 322.087898 109.165564 Z M 315.111537 57.961883 C 318.061273 30.927313 327.790722 -2.385982 336.32623 -3.692294 C 346.402155 -4.530394 350.653522 15.499722 315.111537 57.961883 Z M 366.549324 96.954591 C 359.432499 98.977267 354.567775 86.878665 358.589718 66.502072 C 389.416806 57.353207 375.670097 35.066308 360.851182 48.700646 C 345.334631 62.94366 347.708467 100.166526 366.78343 98.63079 C 377.46335 95.418855 390.980635 74.66301 397.493466 66.127503 C 397.493466 65.54692 395.95773 65.54692 395.466107 66.01045 C 390.371959 72.551373 376.391144 94.229596 366.549324 96.954591 Z M 359.198393 64.474714 C 361.225752 57.615406 365.594171 45.633857 372.369201 46.209757 C 376.971727 47.052539 379.462615 58.195989 359.198393 64.474714 Z M 359.198393 64.474714 " stroke="#644300" stroke-width="8.003205" stroke-opacity="1" stroke-miterlimit="4"/><path stroke-linecap="butt" transform="matrix(0.834291, 0, 0, 0.834291, 273.140564, 659.240603)" fill="none" stroke-linejoin="miter" d="M 77.166119 269.364353 C 50.974331 274.229078 42.317088 242.563889 50.974331 217.903155 C 86.895567 214.831683 88.342343 202.850134 80.98673 198.44894 C 73.144176 193.846415 55.834373 196.800833 48.975065 216.484472 C 25.61596 218.858308 6.278798 230.577658 3.329062 254.053816 C 2.954492 254.428385 5.585844 254.053816 6.512905 254.053816 C 8.88674 231.069281 26.196544 220.998038 48.483442 218.132579 C 41.132511 242.910366 48.019912 271.972295 73.26123 271.508765 C 135.753506 270.207135 127.793899 131.700615 139.775448 116.652276 C 140.730601 115.463018 133.150246 116.301117 132.307465 116.41817 C 78.617577 120.674219 45.76313 182.473541 113.466607 221.461568 C 106.953776 245.775825 96.386228 265.805941 77.166119 269.364353 Z M 113.930137 219.579355 C 54.532743 184.959748 73.635799 126.142937 131.843935 118.328476 C 123.654904 127.56162 124.26358 179.0275 113.930137 219.579355 Z M 79.919206 201.197345 C 84.404679 204.615294 83.477619 212.921378 51.465954 216.133313 C 57.861732 198.44894 74.099329 196.800833 79.919206 201.197345 Z M 166.435449 245.167149 C 177.115368 237.235635 192.168389 210.664595 198.68122 202.124406 C 198.68122 201.548505 197.145484 201.548505 196.681954 202.012035 C 191.587806 208.552958 174.512108 237.816218 164.323812 244.586566 C 151.499481 252.752186 154.336846 228.466021 155.057893 221.808045 C 156.013046 212.111371 157.895259 201.894982 159.084518 197.030257 C 197.871213 153.528666 193.235912 130.516038 181.254363 130.516038 C 166.664873 130.516038 155.900675 159.577967 151.153004 189.332849 C 149.242698 201.314398 148.432691 213.530054 148.662115 223.835403 C 148.779168 229.650598 148.779168 248.613191 158.269829 248.613191 C 160.498518 248.613191 163.251606 247.540985 166.435449 245.167149 Z M 159.459087 193.963468 C 162.408824 166.928898 172.138273 133.610921 180.67378 132.309291 C 190.749706 131.471191 195.005754 151.501307 159.459087 193.963468 Z M 210.901557 232.951494 C 203.78005 234.978853 198.915326 222.88025 202.937268 202.503657 C 233.764357 193.354792 220.017648 171.067893 205.198733 184.702231 C 189.682182 198.940563 192.056018 236.163429 211.130981 234.632376 C 221.8109 231.42044 235.328185 210.664595 241.841016 202.124406 C 241.841016 201.548505 240.309963 201.548505 239.813658 202.012035 C 234.719509 208.552958 220.738695 230.231181 210.901557 232.951494 Z M 203.545944 200.476299 C 205.573303 193.616991 209.946404 181.630759 216.716752 182.211343 C 221.319278 183.049442 223.810166 194.192892 203.545944 200.476299 Z M 203.545944 200.476299 " stroke="#644300" stroke-width="8.003205" stroke-opacity="1" stroke-miterlimit="4"/><path stroke-linecap="butt" transform="matrix(0.834291, 0, 0, 0.834291, 273.140564, 659.240603)" fill="none" stroke-linejoin="miter" d="M 78.238325 404.410786 C 80.14863 408.81198 85.968507 408.432728 85.359832 403.109156 C 84.287626 393.613813 89.643973 370.137656 94.129445 344.549861 C 105.998623 301.277694 128.749052 252.302702 151.527574 254.559485 C 175.350208 256.933321 157.576875 317.978821 143.802073 339.80219 C 121.281068 332.451259 105.043471 349.64401 114.997661 359.485829 C 119.979438 364.350553 136.217036 366.953813 149.153738 344.175292 C 167.418694 350.224593 183.052298 358.530676 202.618884 338.008938 C 202.618884 337.433037 200.853724 337.545407 200.357419 338.008938 C 181.745986 355.927417 167.765171 348.34238 150.225944 342.293079 C 172.859319 304.232113 178.416998 251.34755 151.035951 252.532126 C 125.794633 253.604332 107.529677 294.853823 96.737387 328.658741 C 102.323158 291.178358 103.390682 254.184915 79.076424 252.532126 C 56.677155 251.001073 37.948669 278.152695 38.06104 306.718319 C 8.769687 294.156187 -8.30601 318.212928 3.909645 338.125991 L 7.004527 338.125991 C -6.049228 321.654287 7.004527 296.0384 37.831616 308.371108 C 38.295146 335.405678 48.600495 346.778551 57.632308 345.593974 C 66.167815 344.43749 72.563593 323.798699 40.434875 307.298902 C 39.596775 281.940532 57.253056 251.956225 79.076424 254.442432 C 119.024286 258.932586 69.468711 384.263616 78.238325 404.410786 Z M 58.325262 343.945868 C 51.578325 345.476921 41.741187 339.572766 40.060306 309.326261 C 68.658704 324.608706 63.79398 342.639556 58.325262 343.945868 Z M 142.875013 341.684403 C 135.14483 356.508 122.582698 362.786725 116.907967 358.530676 C 107.64673 351.643276 121.398121 334.595671 142.875013 341.684403 Z M 232.237985 373.120167 C 215.274659 384.727146 227.981937 332.104782 235.796397 319.051027 C 236.489351 316.213662 229.630043 314.649833 227.256208 319.889127 L 226.188684 322.005446 C 219.5588 319.16808 204.014156 321.30781 200.109267 337.662461 C 197.384272 349.26944 202.019572 357.229047 207.923728 355.927417 C 211.252716 355.201688 215.045235 347.96781 223.117212 332.451259 C 215.045235 353.207104 215.883334 387.330406 234.377715 373.70075 C 245.029541 365.769236 257.47462 346.66618 264.020226 338.125991 C 264.020226 337.545407 262.456398 337.545407 261.992868 338.008938 C 256.898719 344.549861 242.543335 366.46219 232.237985 373.120167 Z M 225.491048 323.681646 C 219.5588 334.708042 211.365087 351.643276 208.761828 353.553581 C 203.550626 347.50428 210.526987 317.749398 225.491048 323.681646 Z M 314.872749 338.271136 C 315.448649 337.433037 314.034649 336.936732 312.615966 338.125991 C 294.959686 363.975984 280.482566 381.168734 272.902211 378.907269 C 263.640974 376.186957 280.023718 349.26944 275.622523 346.085597 C 275.388417 345.856173 273.595165 344.783967 264.479074 337.779514 C 274.320894 323.564592 277.996359 315.141456 271.366475 312.163626 C 259.15082 307.444048 249.77253 326.055481 258.659197 335.635102 C 260.07788 337.081877 268.15454 342.756609 270.645428 344.666914 C 265.663651 353.207104 260.223026 367.534396 265.897757 376.912686 C 267.808063 379.979475 271.483528 381.398158 273.248688 381.281105 C 283.811554 380.588151 298.635151 361.747294 314.872749 338.271136 Z M 262.943338 336.590255 C 257.01109 332.104782 265.317174 311.700096 270.757799 314.073932 C 276.34357 316.447768 269.456169 326.982541 262.943338 336.590255 Z M 360.9776 338.271136 C 349.136514 354.246535 334.172454 354.738158 319.498685 347.270174 C 320.425745 340.616879 321.493268 334.825095 322.565474 330.658007 C 361.324077 287.151733 355.040669 264.518357 343.087213 264.518357 C 327.079039 264.518357 317.588379 298.646342 313.187185 335.059201 C 312.957761 337.081877 302.043735 408.320357 324.592833 406.667568 C 336.920859 405.712415 344.159419 371.209862 325.056363 351.760329 C 333.825977 354.246535 349.482991 357.575524 363.351435 338.125991 C 363.351435 337.545407 361.469222 337.662461 360.9776 338.271136 Z M 316.39912 380.705204 C 316.745597 371.092808 317.817803 359.485829 319.236486 349.26944 C 343.204266 366.724389 334.317599 404.064309 324.822257 404.757263 C 319.353539 405.131832 315.678073 398.478538 316.39912 380.705204 Z M 322.911951 327.591217 C 326.123887 298.903858 334.781129 266.892193 342.478537 266.283517 C 352.554463 265.47351 358.486711 285.157149 322.911951 327.591217 Z M 397.123578 328.892847 C 397.96636 325.217381 391.219423 323.915752 388.96264 330.540954 C 381.611709 352.251951 373.909619 374.07532 368.557954 373.930174 C 360.972917 373.70075 366.558688 342.293079 369.279001 329.730947 C 370.351207 326.284905 364.184853 324.262229 362.045123 330.31153 C 359.090705 338.617613 351.365204 376.074586 368.557954 375.494003 C 375.791832 375.231804 382.18761 355.089317 386.935282 342.990715 C 383.606293 358.530676 385.516599 371.584431 390.034846 375.494003 C 404.591562 388.290241 430.095078 344.058239 436.373803 338.125991 C 436.373803 337.545407 434.842749 337.545407 434.379219 338.008938 C 429.860972 343.248232 403.060508 384.610093 392.521053 374.885327 C 387.66101 368.953079 396.084147 333.406412 397.123578 328.892847 Z M 487.343378 367.651449 C 487.600895 357.111993 494.951826 342.639556 497.442715 331.383736 C 499.554351 321.77134 493.50505 320.00618 491.018844 320.235604 C 479.641288 321.541916 468.268415 350.599162 463.286638 359.602882 C 468.727263 341.108502 474.200663 320.699134 462.102061 319.889127 C 451.305089 320.352657 446.093887 335.780248 436.977797 362.786725 C 438.86001 351.643276 439.206487 348.34238 441.954892 336.126725 C 442.301369 330.920205 434.341762 333.148895 433.648808 337.433037 C 430.69439 355.927417 429.247614 365.277614 428.55466 374.768274 C 428.175408 379.632998 435.067491 377.029739 435.905591 373.930174 C 446.819616 337.779514 453.908348 321.30781 461.985008 321.424863 C 465.313996 321.541916 456.656754 349.26944 457.700867 360.558035 C 458.075437 364.350553 461.376332 365.53513 463.633115 362.786725 C 471.480351 347.96781 482.970277 320.961333 491.856944 321.888393 C 494.577256 322.843546 479.875395 351.296799 482.740853 367.76382 C 484.506013 377.867838 493.767249 379.403574 501.235233 373.70075 C 511.88706 365.769236 524.332139 346.66618 530.873063 338.125991 C 530.873063 337.545407 529.313916 337.545407 528.850386 338.008938 C 523.756238 344.549861 509.2838 366.345137 499.090821 373.120167 C 492.320474 377.493269 487.109272 374.53885 487.343378 367.651449 Z M 529.548022 367.30029 C 529.548022 363.395401 532.151282 349.414586 534.988647 338.50056 C 565.815736 329.356377 549.578138 309.092155 535.714376 323.798699 C 525.872557 334.333472 523.152244 359.373458 523.990344 367.76382 C 525.034457 377.867838 532.877011 381.281105 540.344995 375.611056 C 550.996821 367.651449 567.379564 346.66618 573.892396 338.125991 C 573.892396 337.545407 572.35666 337.545407 571.865037 338.008938 C 566.770889 344.549861 548.388879 368.026019 539.043365 374.421797 C 530.732599 379.979475 529.313916 374.192373 529.548022 367.30029 Z M 535.597323 336.477884 C 537.624682 329.613894 541.529571 320.123233 548.276508 320.699134 C 552.907127 321.541916 552.56065 331.730213 535.597323 336.477884 Z M 541.88073 313.465256 C 541.037949 315.722039 544.249884 316.096609 544.830467 313.956879 C 545.439143 311.700096 546.394296 309.209208 548.042402 308.628625 C 545.32209 307.673472 543.065307 309.934937 541.88073 313.465256 Z M 586.220422 368.953079 C 579.098915 370.980438 574.23419 358.877153 578.260815 338.50056 C 609.087903 329.356377 595.336512 307.069478 580.517598 320.699134 C 565.001047 334.942148 567.374882 372.165014 586.449846 370.629278 C 597.129765 367.417343 610.64705 346.66618 617.159881 338.125991 C 617.159881 337.545407 615.628827 337.545407 615.137204 338.008938 C 610.043056 344.549861 596.062241 366.232766 586.220422 368.953079 Z M 578.864809 336.477884 C 580.892167 329.613894 585.265269 317.632344 592.035617 318.212928 C 596.638142 319.051027 599.129031 330.194477 578.864809 336.477884 Z M 578.864809 336.477884 " stroke="#644300" stroke-width="8.003205" stroke-opacity="1" stroke-miterlimit="4"/><g fill="#c7993c" fill-opacity="1"><g transform="translate(273.140564, 737.663919)"><g><path d="M 66.570312 -93.175781 C 98.222656 -93.277344 69.238281 28.882812 47.875 32.542969 C 19.484375 37.390625 8.011719 -6.132812 45.402344 -13.351562 C 47.378906 -11.472656 49.554688 -14.9375 45.796875 -15.132812 C 5.144531 -8.011719 17.308594 38.773438 47.875 34.621094 C 63.105469 32.542969 75.570312 13.351562 85.363281 -39.664062 C 92.089844 -75.867188 105.738281 -95.253906 126.90625 -93.570312 C 142.632812 -91.296875 144.910156 -74.878906 100.496094 -38.082031 C 98.519531 -36.894531 99.902344 -34.621094 101.386719 -35.511719 C 134.324219 -56.777344 145.5 -28.488281 140.753906 -4.847656 C 96.539062 -6.132812 86.253906 24.332031 102.769531 33.035156 C 116.421875 38.28125 138.480469 29.773438 145.699219 -3.5625 C 155.789062 -3.757812 171.714844 -6.132812 182.59375 -23.246094 C 182.59375 -23.738281 181.308594 -23.738281 180.914062 -23.34375 C 169.042969 -6.132812 152.820312 -5.144531 145.898438 -5.042969 C 150.546875 -34.222656 136.402344 -57.371094 103.660156 -38.675781 C 146.6875 -63.996094 146.984375 -93.078125 127.796875 -95.15625 C 103.859375 -97.726562 90.902344 -75.371094 85.164062 -46.292969 C 88.230469 -69.042969 84.273438 -95.253906 66.964844 -94.660156 C 48.269531 -94.066406 31.949219 -73.292969 32.046875 -49.457031 C 7.617188 -59.941406 -6.628906 -39.863281 3.5625 -23.246094 L 6.132812 -23.246094 C -4.746094 -36.992188 6.132812 -58.359375 31.851562 -48.070312 C 32.246094 -25.519531 40.851562 -16.023438 48.367188 -17.011719 C 55.492188 -18.003906 60.832031 -35.214844 34.027344 -48.960938 C 33.332031 -70.128906 48.269531 -92.582031 66.570312 -93.175781 Z M 140.359375 -3.363281 C 136.007812 17.804688 120.773438 37.585938 103.5625 31.554688 C 89.515625 25.125 96.636719 -4.449219 140.359375 -3.363281 Z M 48.960938 -18.398438 C 43.324219 -17.113281 35.113281 -22.058594 33.730469 -47.28125 C 57.566406 -34.519531 53.511719 -19.484375 48.960938 -18.398438 Z M 48.960938 -18.398438 "/></g></g></g><g fill="#c7993c" fill-opacity="1"><g transform="translate(453.637841, 737.663919)"><g><path d="M 12.265625 2.472656 C 6.332031 4.15625 2.273438 -5.933594 5.636719 -22.949219 C 31.355469 -30.5625 19.882812 -49.160156 7.515625 -37.785156 C -5.441406 -25.914062 -3.460938 5.144531 12.464844 3.859375 C 21.367188 1.1875 32.640625 -16.121094 38.082031 -23.246094 C 38.082031 -23.738281 36.796875 -23.738281 36.398438 -23.34375 C 32.148438 -17.902344 20.476562 0.199219 12.265625 2.472656 Z M 6.132812 -24.628906 C 7.8125 -30.367188 11.472656 -40.355469 17.113281 -39.863281 C 20.96875 -39.167969 23.046875 -29.871094 6.132812 -24.628906 Z M 6.132812 -24.628906 "/></g></g></g><g fill="#c7993c" fill-opacity="1"><g transform="translate(489.737306, 737.663919)"><g><path d="M 13.648438 12.660156 C 22.550781 6.035156 35.113281 -16.121094 40.554688 -23.246094 C 40.554688 -23.738281 39.269531 -23.738281 38.871094 -23.34375 C 34.621094 -17.902344 20.375 6.527344 11.871094 12.167969 C 1.1875 18.992188 3.5625 -1.285156 4.15625 -6.824219 C 4.945312 -14.9375 6.527344 -23.441406 7.515625 -27.496094 C 39.863281 -63.800781 36.003906 -82.988281 26.015625 -82.988281 C 13.847656 -82.988281 4.847656 -58.753906 0.890625 -33.925781 C -0.691406 -23.9375 -1.386719 -13.75 -1.1875 -5.144531 C -1.089844 -0.296875 -1.089844 15.53125 6.824219 15.53125 C 8.703125 15.53125 10.980469 14.640625 13.648438 12.660156 Z M 7.8125 -30.070312 C 10.285156 -52.621094 18.398438 -80.417969 25.519531 -81.503906 C 33.925781 -82.195312 37.488281 -65.480469 7.8125 -30.070312 Z M 7.8125 -30.070312 "/></g></g></g><g fill="#c7993c" fill-opacity="1"><g transform="translate(528.210405, 737.663919)"><g><path d="M 13.648438 12.660156 C 22.550781 6.035156 35.113281 -16.121094 40.554688 -23.246094 C 40.554688 -23.738281 39.269531 -23.738281 38.871094 -23.34375 C 34.621094 -17.902344 20.375 6.527344 11.871094 12.167969 C 1.1875 18.992188 3.5625 -1.285156 4.15625 -6.824219 C 4.945312 -14.9375 6.527344 -23.441406 7.515625 -27.496094 C 39.863281 -63.800781 36.003906 -82.988281 26.015625 -82.988281 C 13.847656 -82.988281 4.847656 -58.753906 0.890625 -33.925781 C -0.691406 -23.9375 -1.386719 -13.75 -1.1875 -5.144531 C -1.089844 -0.296875 -1.089844 15.53125 6.824219 15.53125 C 8.703125 15.53125 10.980469 14.640625 13.648438 12.660156 Z M 7.8125 -30.070312 C 10.285156 -52.621094 18.398438 -80.417969 25.519531 -81.503906 C 33.925781 -82.195312 37.488281 -65.480469 7.8125 -30.070312 Z M 7.8125 -30.070312 "/></g></g></g><g fill="#c7993c" fill-opacity="1"><g transform="translate(566.683504, 737.663919)"><g><path d="M 12.265625 2.472656 C 6.332031 4.15625 2.273438 -5.933594 5.636719 -22.949219 C 31.355469 -30.5625 19.882812 -49.160156 7.515625 -37.785156 C -5.441406 -25.914062 -3.460938 5.144531 12.464844 3.859375 C 21.367188 1.1875 32.640625 -16.121094 38.082031 -23.246094 C 38.082031 -23.738281 36.796875 -23.738281 36.398438 -23.34375 C 32.148438 -17.902344 20.476562 0.199219 12.265625 2.472656 Z M 6.132812 -24.628906 C 7.8125 -30.367188 11.472656 -40.355469 17.113281 -39.863281 C 20.96875 -39.167969 23.046875 -29.871094 6.132812 -24.628906 Z M 6.132812 -24.628906 "/></g></g></g><g fill="#c7993c" fill-opacity="1"><g transform="translate(273.140564, 851.12744)"><g><path d="M 64.394531 32.839844 C 42.53125 36.894531 35.3125 10.484375 42.53125 -10.089844 C 72.503906 -12.660156 73.691406 -22.652344 67.558594 -26.3125 C 61.03125 -30.167969 46.589844 -27.695312 40.851562 -11.277344 C 21.367188 -9.296875 5.242188 0.496094 2.769531 20.078125 C 2.472656 20.375 4.648438 20.078125 5.441406 20.078125 C 7.417969 0.890625 21.859375 -7.515625 40.457031 -9.890625 C 34.324219 10.78125 40.058594 35.015625 61.128906 34.621094 C 113.257812 33.53125 106.628906 -82 116.617188 -94.5625 C 117.410156 -95.550781 111.078125 -94.859375 110.386719 -94.757812 C 65.578125 -91.199219 38.179688 -39.664062 94.660156 -7.121094 C 89.21875 13.15625 80.417969 29.871094 64.394531 32.839844 Z M 95.054688 -8.703125 C 45.5 -37.585938 61.425781 -86.648438 109.992188 -93.175781 C 103.167969 -85.460938 103.660156 -42.53125 95.054688 -8.703125 Z M 66.667969 -24.035156 C 70.425781 -21.167969 69.636719 -14.242188 42.929688 -11.574219 C 48.269531 -26.3125 61.820312 -27.695312 66.667969 -24.035156 Z M 66.667969 -24.035156 "/></g></g></g><g fill="#c7993c" fill-opacity="1"><g transform="translate(398.351281, 851.12744)"><g><path d="M 13.648438 12.660156 C 22.550781 6.035156 35.113281 -16.121094 40.554688 -23.246094 C 40.554688 -23.738281 39.269531 -23.738281 38.871094 -23.34375 C 34.621094 -17.902344 20.375 6.527344 11.871094 12.167969 C 1.1875 18.992188 3.5625 -1.285156 4.15625 -6.824219 C 4.945312 -14.9375 6.527344 -23.441406 7.515625 -27.496094 C 39.863281 -63.800781 36.003906 -82.988281 26.015625 -82.988281 C 13.847656 -82.988281 4.847656 -58.753906 0.890625 -33.925781 C -0.691406 -23.9375 -1.386719 -13.75 -1.1875 -5.144531 C -1.089844 -0.296875 -1.089844 15.53125 6.824219 15.53125 C 8.703125 15.53125 10.980469 14.640625 13.648438 12.660156 Z M 7.8125 -30.070312 C 10.285156 -52.621094 18.398438 -80.417969 25.519531 -81.503906 C 33.925781 -82.195312 37.488281 -65.480469 7.8125 -30.070312 Z M 7.8125 -30.070312 "/></g></g></g><g fill="#c7993c" fill-opacity="1"><g transform="translate(436.824392, 851.12744)"><g><path d="M 12.265625 2.472656 C 6.332031 4.15625 2.273438 -5.933594 5.636719 -22.949219 C 31.355469 -30.5625 19.882812 -49.160156 7.515625 -37.785156 C -5.441406 -25.914062 -3.460938 5.144531 12.464844 3.859375 C 21.367188 1.1875 32.640625 -16.121094 38.082031 -23.246094 C 38.082031 -23.738281 36.796875 -23.738281 36.398438 -23.34375 C 32.148438 -17.902344 20.476562 0.199219 12.265625 2.472656 Z M 6.132812 -24.628906 C 7.8125 -30.367188 11.472656 -40.355469 17.113281 -39.863281 C 20.96875 -39.167969 23.046875 -29.871094 6.132812 -24.628906 Z M 6.132812 -24.628906 "/></g></g></g><g fill="#c7993c" fill-opacity="1"><g transform="translate(273.140564, 964.590962)"><g><path d="M 65.28125 32.046875 C 66.867188 35.707031 71.710938 35.410156 71.21875 30.960938 C 70.328125 23.046875 74.777344 3.460938 78.539062 -17.902344 C 88.429688 -54.007812 107.421875 -94.859375 126.410156 -92.980469 C 146.292969 -91 131.457031 -40.058594 119.980469 -21.859375 C 101.1875 -27.992188 87.636719 -13.648438 95.945312 -5.441406 C 100.101562 -1.386719 113.652344 0.792969 124.433594 -18.199219 C 139.664062 -13.15625 152.722656 -6.230469 169.042969 -23.34375 C 169.042969 -23.839844 167.558594 -23.738281 167.164062 -23.34375 C 151.632812 -8.40625 139.960938 -14.738281 125.324219 -19.78125 C 144.214844 -51.535156 148.863281 -95.648438 126.015625 -94.660156 C 104.945312 -93.769531 89.714844 -59.347656 80.714844 -31.15625 C 85.363281 -62.414062 86.253906 -93.277344 65.976562 -94.660156 C 47.28125 -95.945312 31.652344 -73.292969 31.75 -49.457031 C 7.320312 -59.941406 -6.925781 -39.863281 3.265625 -23.246094 L 5.835938 -23.246094 C -5.042969 -36.992188 5.835938 -58.359375 31.554688 -48.070312 C 31.949219 -25.519531 40.554688 -16.023438 48.070312 -17.011719 C 55.195312 -18.003906 60.535156 -35.214844 33.730469 -48.960938 C 33.035156 -70.128906 47.773438 -95.15625 65.976562 -93.078125 C 99.308594 -89.320312 57.964844 15.234375 65.28125 32.046875 Z M 48.664062 -18.398438 C 43.027344 -17.113281 34.816406 -22.058594 33.433594 -47.28125 C 57.269531 -34.519531 53.214844 -19.484375 48.664062 -18.398438 Z M 119.191406 -20.277344 C 112.761719 -7.914062 102.277344 -2.671875 97.527344 -6.230469 C 89.8125 -11.96875 101.289062 -26.210938 119.191406 -20.277344 Z M 119.191406 -20.277344 "/></g></g></g><g fill="#c7993c" fill-opacity="1"><g transform="translate(440.088178, 964.590962)"><g><path d="M 26.804688 5.933594 C 12.660156 15.628906 23.246094 -28.289062 29.773438 -39.167969 C 30.367188 -41.542969 24.628906 -42.828125 22.652344 -38.476562 L 21.761719 -36.695312 C 16.222656 -39.070312 3.265625 -37.289062 0 -23.640625 C -2.273438 -13.945312 1.582031 -7.320312 6.527344 -8.40625 C 9.296875 -9 12.464844 -15.035156 19.1875 -27.992188 C 12.464844 -10.683594 13.15625 17.804688 28.585938 6.429688 C 37.488281 -0.199219 47.875 -16.121094 53.3125 -23.246094 C 53.3125 -23.738281 52.027344 -23.738281 51.632812 -23.34375 C 47.378906 -17.902344 35.410156 0.394531 26.804688 5.933594 Z M 21.167969 -35.3125 C 16.222656 -26.113281 9.398438 -11.96875 7.21875 -10.386719 C 2.867188 -15.429688 8.703125 -40.257812 21.167969 -35.3125 Z M 21.167969 -35.3125 "/></g></g></g><g fill="#c7993c" fill-opacity="1"><g transform="translate(491.715331, 964.590962)"><g><path d="M 44.117188 -23.144531 C 44.609375 -23.839844 43.421875 -24.234375 42.234375 -23.246094 C 27.496094 -1.679688 15.429688 12.660156 9.101562 10.78125 C 1.386719 8.507812 15.035156 -13.945312 11.375 -16.617188 C 11.175781 -16.816406 9.695312 -17.707031 2.078125 -23.542969 C 10.285156 -35.410156 13.351562 -42.433594 7.8125 -44.90625 C -2.375 -48.863281 -10.1875 -33.332031 -2.769531 -25.320312 C -1.582031 -24.136719 5.144531 -19.386719 7.21875 -17.804688 C 3.066406 -10.683594 -1.484375 1.285156 3.265625 9.101562 C 4.847656 11.671875 7.914062 12.859375 9.398438 12.761719 C 18.199219 12.167969 30.5625 -3.5625 44.117188 -23.144531 Z M 0.792969 -24.53125 C -4.15625 -28.289062 2.769531 -45.300781 7.320312 -43.324219 C 11.96875 -41.347656 6.230469 -32.542969 0.792969 -24.53125 Z M 0.792969 -24.53125 "/></g></g></g><g fill="#c7993c" fill-opacity="1"><g transform="translate(533.946761, 964.590962)"><g><path d="M 40.355469 -23.144531 C 30.464844 -9.792969 18.003906 -9.398438 5.738281 -15.628906 C 6.527344 -21.167969 7.417969 -26.015625 8.308594 -29.476562 C 40.652344 -65.777344 35.410156 -84.671875 25.421875 -84.671875 C 12.066406 -84.671875 4.15625 -56.183594 0.496094 -25.816406 C 0.296875 -24.136719 -8.804688 35.3125 9.992188 33.925781 C 20.277344 33.136719 26.3125 4.351562 10.386719 -11.871094 C 17.707031 -9.792969 30.761719 -7.023438 42.335938 -23.246094 C 42.335938 -23.738281 40.753906 -23.640625 40.355469 -23.144531 Z M 3.164062 12.265625 C 3.460938 4.253906 4.351562 -5.441406 5.539062 -13.945312 C 25.519531 0.59375 18.101562 31.75 10.1875 32.34375 C 5.636719 32.640625 2.570312 27.101562 3.164062 12.265625 Z M 8.605469 -32.046875 C 11.277344 -55.984375 18.496094 -82.691406 24.925781 -83.1875 C 33.332031 -83.878906 38.28125 -67.460938 8.605469 -32.046875 Z M 8.605469 -32.046875 "/></g></g></g><g fill="#c7993c" fill-opacity="1"><g transform="translate(574.200111, 964.590962)"><g><path d="M 30.265625 -30.960938 C 30.960938 -34.027344 25.320312 -35.113281 23.441406 -29.574219 C 17.308594 -11.472656 10.878906 6.726562 6.429688 6.628906 C 0.0976562 6.429688 4.746094 -19.78125 7.023438 -30.265625 C 7.914062 -33.136719 2.769531 -34.816406 0.988281 -29.773438 C -1.484375 -22.847656 -7.914062 8.40625 6.429688 7.914062 C 12.464844 7.714844 17.804688 -9.101562 21.761719 -19.1875 C 18.992188 -6.230469 20.574219 4.648438 24.332031 7.914062 C 36.5 18.597656 57.765625 -18.300781 63.007812 -23.246094 C 63.007812 -23.738281 61.722656 -23.738281 61.328125 -23.34375 C 57.566406 -18.992188 35.214844 15.53125 26.410156 7.417969 C 22.355469 2.472656 29.378906 -27.203125 30.265625 -30.960938 Z M 30.265625 -30.960938 "/></g></g></g><g fill="#c7993c" fill-opacity="1"><g transform="translate(635.025212, 964.590962)"><g><path d="M 44.707031 1.386719 C 44.90625 -7.417969 51.039062 -19.484375 53.117188 -28.882812 C 54.898438 -36.894531 49.851562 -38.378906 47.773438 -38.179688 C 38.28125 -37.09375 28.785156 -12.859375 24.628906 -5.339844 C 29.179688 -20.773438 33.730469 -37.785156 23.640625 -38.476562 C 14.640625 -38.082031 10.285156 -25.222656 2.671875 -2.671875 C 4.253906 -11.96875 4.550781 -14.738281 6.824219 -24.925781 C 7.121094 -29.277344 0.496094 -27.398438 -0.0976562 -23.839844 C -2.570312 -8.40625 -3.757812 -0.59375 -4.351562 7.320312 C -4.648438 11.375 1.089844 9.199219 1.78125 6.628906 C 10.878906 -23.542969 16.816406 -37.289062 23.542969 -37.191406 C 26.3125 -37.09375 19.089844 -13.945312 19.980469 -4.550781 C 20.277344 -1.386719 23.046875 -0.394531 24.925781 -2.671875 C 31.453125 -15.035156 41.050781 -37.585938 48.46875 -36.796875 C 50.742188 -36.003906 38.476562 -12.265625 40.851562 1.484375 C 42.335938 9.890625 50.050781 11.175781 56.28125 6.429688 C 65.183594 -0.199219 75.570312 -16.121094 81.011719 -23.246094 C 81.011719 -23.738281 79.722656 -23.738281 79.328125 -23.34375 C 75.074219 -17.902344 63.007812 0.296875 54.5 5.933594 C 48.863281 9.59375 44.511719 7.121094 44.707031 1.386719 Z M 44.707031 1.386719 "/></g></g></g><g fill="#c7993c" fill-opacity="1"><g transform="translate(713.850601, 964.590962)"><g><path d="M 1.089844 1.089844 C 1.089844 -2.175781 3.265625 -13.847656 5.636719 -22.949219 C 31.355469 -30.5625 17.804688 -47.476562 6.230469 -35.214844 C -1.976562 -26.410156 -4.253906 -5.539062 -3.5625 1.484375 C -2.671875 9.890625 3.859375 12.761719 10.089844 8.011719 C 18.992188 1.386719 32.640625 -16.121094 38.082031 -23.246094 C 38.082031 -23.738281 36.796875 -23.738281 36.398438 -23.34375 C 32.148438 -17.902344 16.816406 1.679688 9 7.023438 C 2.078125 11.671875 0.890625 6.824219 1.089844 1.089844 Z M 6.132812 -24.628906 C 7.8125 -30.367188 11.078125 -38.28125 16.714844 -37.785156 C 20.574219 -37.09375 20.277344 -28.585938 6.132812 -24.628906 Z M 11.375 -43.820312 C 10.683594 -41.9375 13.351562 -41.644531 13.847656 -43.421875 C 14.34375 -45.300781 15.132812 -47.378906 16.519531 -47.875 C 14.242188 -48.664062 12.363281 -46.785156 11.375 -43.820312 Z M 11.375 -43.820312 "/></g></g></g><g fill="#c7993c" fill-opacity="1"><g transform="translate(749.950066, 964.590962)"><g><path d="M 12.265625 2.472656 C 6.332031 4.15625 2.273438 -5.933594 5.636719 -22.949219 C 31.355469 -30.5625 19.882812 -49.160156 7.515625 -37.785156 C -5.441406 -25.914062 -3.460938 5.144531 12.464844 3.859375 C 21.367188 1.1875 32.640625 -16.121094 38.082031 -23.246094 C 38.082031 -23.738281 36.796875 -23.738281 36.398438 -23.34375 C 32.148438 -17.902344 20.476562 0.199219 12.265625 2.472656 Z M 6.132812 -24.628906 C 7.8125 -30.367188 11.472656 -40.355469 17.113281 -39.863281 C 20.96875 -39.167969 23.046875 -29.871094 6.132812 -24.628906 Z M 6.132812 -24.628906 "/></g></g></g></svg>