<svg xmlns="http://www.w3.org/2000/svg" xmlns:xlink="http://www.w3.org/1999/xlink" width="500" zoomAndPan="magnify" viewBox="0 0 375 374.999991" height="500" preserveAspectRatio="xMidYMid meet" version="1.0"><defs><g/><clipPath id="737fa0f84f"><path d="M 0 156.539062 L 375 156.539062 L 375 199.160156 L 0 199.160156 Z M 0 156.539062 " clip-rule="nonzero"/></clipPath></defs><g fill="#3b3937" fill-opacity="1"><g transform="translate(160.545961, 345.549052)"><g><path d="M 12.265625 0 L 12.265625 -3.5 L 19.625 -3.5 C 27.800781 -3.5 34.164062 -5.367188 38.71875 -9.109375 C 43.28125 -12.847656 45.5625 -19.15625 45.5625 -28.03125 L 45.5625 -223.609375 C 45.5625 -231.785156 43.28125 -237.679688 38.71875 -241.296875 C 34.164062 -244.921875 27.800781 -246.734375 19.625 -246.734375 L 12.265625 -246.734375 L 12.265625 -250.25 L 113.203125 -250.25 C 143.578125 -250.25 166.007812 -243.703125 180.5 -230.609375 C 194.988281 -217.523438 202.234375 -199.535156 202.234375 -176.640625 C 202.234375 -162.617188 199.132812 -149.59375 192.9375 -137.5625 C 186.75 -125.53125 176.523438 -115.773438 162.265625 -108.296875 C 148.015625 -100.816406 129.09375 -97.078125 105.5 -97.078125 L 86.21875 -97.078125 L 86.21875 -27.6875 C 86.21875 -19.039062 88.492188 -12.847656 93.046875 -9.109375 C 97.609375 -5.367188 103.976562 -3.5 112.15625 -3.5 L 121.625 -3.5 L 121.625 0 Z M 86.21875 -100.59375 L 101.984375 -100.59375 C 122.316406 -100.59375 136.804688 -106.257812 145.453125 -117.59375 C 154.097656 -128.925781 158.421875 -148.023438 158.421875 -174.890625 C 158.421875 -200.585938 154.5625 -218.984375 146.84375 -230.078125 C 139.132812 -241.179688 125.9375 -246.734375 107.25 -246.734375 L 86.21875 -246.734375 Z M 86.21875 -100.59375 "/></g></g></g><g fill="#3b3937" fill-opacity="1"><g transform="translate(-10.39312, 313.592539)"><g><path d="M 12.25 0 L 12.25 -3.5 L 19.609375 -3.5 C 27.773438 -3.5 34.128906 -5.363281 38.671875 -9.09375 C 43.222656 -12.832031 45.5 -19.132812 45.5 -28 L 45.5 -222.96875 C 45.5 -231.132812 43.222656 -237.082031 38.671875 -240.8125 C 34.128906 -244.550781 27.773438 -246.421875 19.609375 -246.421875 L 12.25 -246.421875 L 12.25 -249.921875 L 108.515625 -249.921875 C 170.347656 -249.921875 201.265625 -229.851562 201.265625 -189.71875 C 201.265625 -154.945312 178.046875 -135.8125 131.609375 -132.3125 L 131.609375 -131.609375 C 159.378906 -130.679688 179.679688 -124.5 192.515625 -113.0625 C 205.347656 -101.625 211.765625 -86.335938 211.765625 -67.203125 C 211.765625 -22.398438 180.847656 0 119.015625 0 Z M 86.109375 -132.65625 L 107.453125 -132.65625 C 125.660156 -132.65625 138.613281 -136.914062 146.3125 -145.4375 C 154.007812 -153.957031 157.859375 -168.132812 157.859375 -187.96875 C 157.859375 -209.195312 153.945312 -224.242188 146.125 -233.109375 C 138.3125 -241.984375 125.191406 -246.421875 106.765625 -246.421875 L 86.109375 -246.421875 Z M 86.109375 -3.5 L 117.265625 -3.5 C 135.691406 -3.5 148.8125 -8.398438 156.625 -18.203125 C 164.445312 -28.003906 168.359375 -44.222656 168.359375 -66.859375 C 168.359375 -89.253906 164.507812 -105.234375 156.8125 -114.796875 C 149.113281 -124.367188 136.160156 -129.15625 117.953125 -129.15625 L 86.109375 -129.15625 Z M 86.109375 -3.5 "/></g></g></g><g clip-path="url(#737fa0f84f)"><path fill="#f4f4f4" d="M -15.261719 156.539062 L 439.238281 156.539062 L 439.238281 199.160156 L -15.261719 199.160156 Z M -15.261719 156.539062 " fill-opacity="1" fill-rule="nonzero"/></g><g fill="#3b3937" fill-opacity="1"><g transform="translate(9.662137, 191.350975)"><g><path d="M 20.757812 -7.558594 C 20.757812 -9.480469 20.277344 -11.121094 19.359375 -12.398438 C 18.398438 -13.679688 17.117188 -14.558594 15.558594 -15 C 16.480469 -15.398438 17.277344 -16.117188 17.878906 -17.199219 C 18.160156 -17.679688 18.359375 -18.160156 18.519531 -18.679688 C 18.679688 -19.199219 18.757812 -19.917969 18.757812 -20.839844 C 18.757812 -21.71875 18.519531 -22.636719 18.117188 -23.519531 C 16.917969 -25.957031 14.320312 -27.199219 10.359375 -27.199219 L 3 -27.199219 L 3 0 L 11.320312 0 C 14.078125 0 16.277344 -0.601562 17.957031 -1.878906 C 18.796875 -2.519531 19.480469 -3.359375 20 -4.398438 C 20.480469 -5.398438 20.757812 -6.441406 20.757812 -7.558594 Z M 15.960938 -20.398438 C 15.960938 -18.917969 15.519531 -17.839844 14.640625 -17.117188 C 13.757812 -16.398438 12.597656 -16.039062 11.160156 -16.039062 L 5.800781 -16.039062 L 5.800781 -24.519531 L 10.359375 -24.519531 C 14.078125 -24.519531 15.960938 -23.117188 15.960938 -20.398438 Z M 17.957031 -8.121094 C 17.957031 -6.480469 17.398438 -5.160156 16.277344 -4.160156 C 15.199219 -3.160156 13.800781 -2.679688 12.121094 -2.679688 L 5.800781 -2.679688 L 5.800781 -13.238281 L 12.558594 -13.238281 C 13.960938 -13.238281 15.199219 -12.757812 16.277344 -11.800781 C 16.757812 -11.359375 17.160156 -10.839844 17.480469 -10.238281 C 17.800781 -9.597656 17.957031 -8.917969 17.957031 -8.121094 Z M 17.957031 -8.121094 "/></g></g></g><g fill="#3b3937" fill-opacity="1"><g transform="translate(31.219989, 191.350975)"><g><path d="M 19.160156 0 L 19.160156 -2.601562 L 5.800781 -2.601562 L 5.800781 -12.277344 L 18.757812 -12.277344 L 18.757812 -14.917969 L 5.800781 -14.917969 L 5.800781 -24.597656 L 19.160156 -24.597656 L 19.160156 -27.199219 L 3 -27.199219 L 3 0 Z M 19.160156 0 "/></g></g></g><g fill="#3b3937" fill-opacity="1"><g transform="translate(53.377787, 191.350975)"><g><path d="M 5.800781 -2.800781 L 5.800781 -27.199219 L 3 -27.199219 L 3 0 L 15.519531 0 L 15.519531 -2.800781 Z M 5.800781 -2.800781 "/></g></g></g><g fill="#3b3937" fill-opacity="1"><g transform="translate(69.696168, 191.350975)"><g><path d="M 5.800781 -2.800781 L 5.800781 -27.199219 L 3 -27.199219 L 3 0 L 15.519531 0 L 15.519531 -2.800781 Z M 5.800781 -2.800781 "/></g></g></g><g fill="#3b3937" fill-opacity="1"><g transform="translate(86.014549, 191.350975)"><g><path d="M 19.160156 0 L 19.160156 -2.601562 L 5.800781 -2.601562 L 5.800781 -12.277344 L 18.757812 -12.277344 L 18.757812 -14.917969 L 5.800781 -14.917969 L 5.800781 -24.597656 L 19.160156 -24.597656 L 19.160156 -27.199219 L 3 -27.199219 L 3 0 Z M 19.160156 0 "/></g></g></g><g fill="#3b3937" fill-opacity="1"><g transform="translate(108.172347, 191.350975)"><g/></g></g><g fill="#3b3937" fill-opacity="1"><g transform="translate(118.971277, 191.350975)"><g><path d="M 5.800781 0 L 5.800781 -27.199219 L 3 -27.199219 L 3 0 Z M 5.800781 0 "/></g></g></g><g fill="#3b3937" fill-opacity="1"><g transform="translate(127.770398, 191.350975)"><g><path d="M 5.800781 -2.800781 L 5.800781 -27.199219 L 3 -27.199219 L 3 0 L 15.519531 0 L 15.519531 -2.800781 Z M 5.800781 -2.800781 "/></g></g></g><g fill="#3b3937" fill-opacity="1"><g transform="translate(144.08878, 191.350975)"><g><path d="M 19.160156 0 L 19.160156 -2.601562 L 5.800781 -2.601562 L 5.800781 -12.277344 L 18.757812 -12.277344 L 18.757812 -14.917969 L 5.800781 -14.917969 L 5.800781 -24.597656 L 19.160156 -24.597656 L 19.160156 -27.199219 L 3 -27.199219 L 3 0 Z M 19.160156 0 "/></g></g></g><g fill="#3b3937" fill-opacity="1"><g transform="translate(166.246577, 191.350975)"><g/></g></g><g fill="#3b3937" fill-opacity="1"><g transform="translate(177.045508, 191.350975)"><g><path d="M 5.800781 -13.480469 L 5.800781 -24.519531 L 12.121094 -24.519531 C 13.757812 -24.519531 15.078125 -24 16.078125 -23 C 17.039062 -21.957031 17.558594 -20.679688 17.558594 -19.078125 C 17.558594 -17.4375 17.039062 -16.117188 16 -15.039062 C 14.960938 -14 13.679688 -13.480469 12.121094 -13.480469 Z M 20.359375 -19 C 20.359375 -21.398438 19.480469 -23.359375 17.800781 -24.917969 C 16.117188 -26.4375 14.117188 -27.199219 11.71875 -27.199219 L 3 -27.199219 L 3 0 L 5.800781 0 L 5.800781 -10.757812 L 11.71875 -10.757812 C 14.117188 -10.757812 16.160156 -11.519531 17.800781 -13.039062 C 19.480469 -14.640625 20.359375 -16.597656 20.359375 -19 Z M 20.359375 -19 "/></g></g></g><g fill="#3b3937" fill-opacity="1"><g transform="translate(198.203401, 191.350975)"><g><path d="M 7.398438 -10 L 12.359375 -22.519531 L 17.277344 -10 Z M 24.277344 0 L 12.359375 -29.078125 L 0.398438 0 L 3.441406 0 L 6.359375 -7.398438 L 18.320312 -7.398438 L 21.238281 0 Z M 24.277344 0 "/></g></g></g><g fill="#3b3937" fill-opacity="1"><g transform="translate(222.880935, 191.350975)"><g><path d="M 5.800781 -13.4375 L 5.800781 -24.519531 L 12.121094 -24.519531 C 13.757812 -24.519531 15.078125 -24 16.078125 -22.957031 C 17.039062 -21.917969 17.558594 -20.640625 17.558594 -19.039062 C 17.558594 -17.4375 17.039062 -16.117188 16 -15.039062 C 14.960938 -13.960938 13.679688 -13.4375 12.121094 -13.4375 Z M 20.359375 -19 C 20.359375 -21.320312 19.480469 -23.320312 17.800781 -24.878906 C 16.160156 -26.398438 14.117188 -27.199219 11.71875 -27.199219 L 3 -27.199219 L 3 0 L 5.800781 0 L 5.800781 -10.757812 L 9.039062 -10.757812 L 17.039062 0 L 20.796875 0 L 12.398438 -10.757812 C 14.519531 -10.878906 16.320312 -11.640625 17.800781 -13.039062 C 19.480469 -14.597656 20.359375 -16.597656 20.359375 -19 Z M 20.359375 -19 "/></g></g></g><g fill="#3b3937" fill-opacity="1"><g transform="translate(244.638761, 191.350975)"><g><path d="M 19.160156 -24.597656 L 19.160156 -27.199219 L 3 -27.199219 L 3 0 L 5.800781 0 L 5.800781 -12.277344 L 18.757812 -12.277344 L 18.757812 -14.917969 L 5.800781 -14.917969 L 5.800781 -24.597656 Z M 19.160156 -24.597656 "/></g></g></g><g fill="#3b3937" fill-opacity="1"><g transform="translate(264.596775, 191.350975)"><g><path d="M 22.679688 -9 L 22.679688 -27.199219 L 19.878906 -27.199219 L 19.878906 -8.597656 C 19.878906 -7.480469 19.679688 -6.558594 19.277344 -5.800781 C 18.117188 -3.558594 15.878906 -2.441406 12.558594 -2.441406 C 10.398438 -2.441406 8.679688 -2.917969 7.398438 -3.878906 C 5.917969 -4.960938 5.199219 -6.519531 5.199219 -8.597656 L 5.199219 -27.199219 L 2.398438 -27.199219 L 2.398438 -9 C 2.398438 -6.039062 3.359375 -3.71875 5.28125 -2.039062 C 7.078125 -0.441406 9.519531 0.359375 12.558594 0.359375 C 15.558594 0.359375 17.957031 -0.441406 19.796875 -2.039062 C 21.71875 -3.71875 22.679688 -6.039062 22.679688 -9 Z M 22.679688 -9 "/></g></g></g><g fill="#3b3937" fill-opacity="1"><g transform="translate(289.67428, 191.350975)"><g><path d="M 28.078125 0 L 30.917969 0 L 24.597656 -29 L 15.679688 -5.71875 L 6.757812 -29 L 0.398438 0 L 3.28125 0 L 7.480469 -19.359375 L 15.679688 1.601562 L 23.839844 -19.359375 Z M 28.078125 0 "/></g></g></g><g fill="#3b3937" fill-opacity="1"><g transform="translate(320.991173, 191.350975)"><g><path d="M 19.160156 0 L 19.160156 -2.601562 L 5.800781 -2.601562 L 5.800781 -12.277344 L 18.757812 -12.277344 L 18.757812 -14.917969 L 5.800781 -14.917969 L 5.800781 -24.597656 L 19.160156 -24.597656 L 19.160156 -27.199219 L 3 -27.199219 L 3 0 Z M 19.160156 0 "/></g></g></g><g fill="#3b3937" fill-opacity="1"><g transform="translate(343.14897, 191.350975)"><g><path d="M 19.160156 0 L 19.160156 -2.601562 L 5.800781 -2.601562 L 5.800781 -12.277344 L 18.757812 -12.277344 L 18.757812 -14.917969 L 5.800781 -14.917969 L 5.800781 -24.597656 L 19.160156 -24.597656 L 19.160156 -27.199219 L 3 -27.199219 L 3 0 Z M 19.160156 0 "/></g></g></g></svg>